<?xml version="1.0" standalone="no"?>
<!DOCTYPE svg PUBLIC "-//W3C//DTD SVG 20010904//EN"
 "http://www.w3.org/TR/2001/REC-SVG-20010904/DTD/svg10.dtd">
<svg version="1.0" xmlns="http://www.w3.org/2000/svg"
 width="144.000000pt" height="144.000000pt" viewBox="0 0 144.000000 144.000000"
 preserveAspectRatio="xMidYMid meet">

<g transform="translate(0.000000,144.000000) scale(0.100000,-0.100000)"
fill="#000000" stroke="none">
<path d="M514 1360 c-119 -27 -328 -116 -348 -148 -4 -6 118 -209 136 -228 4
-3 24 7 45 24 21 16 67 44 103 62 82 42 194 53 263 26 47 -18 110 -72 104 -90
-2 -6 -62 -23 -133 -38 -173 -37 -253 -62 -352 -109 -196 -94 -303 -275 -274
-463 14 -89 46 -150 112 -216 81 -81 133 -103 253 -108 125 -5 209 19 318 94
l77 52 6 -59 7 -59 271 0 c245 0 270 2 264 16 -23 61 -37 226 -42 509 -7 428
-24 507 -130 611 -62 61 -130 96 -238 124 -106 27 -323 27 -442 0z m316 -711
c0 -45 -5 -100 -12 -123 -24 -87 -97 -146 -179 -146 -36 0 -48 6 -82 42 -38
40 -39 43 -35 100 4 50 9 63 39 94 41 43 73 60 164 90 108 36 105 37 105 -57z"/>
</g>
</svg>
